<svg xmlns="http://www.w3.org/2000/svg" viewBox="0 0 256 257">
  <defs>
    <linearGradient id="icon-gradient-a" x1="-.828%" x2="57.636%" y1="7.652%" y2="78.411%">
      <stop stop-color="#41D1FF" offset="0%" />
      <stop stop-color="#BD34FE" offset="100%" />
    </linearGradient>
    <linearGradient id="icon-gradient-b" x1="43.376%" x2="50.316%" y1="2.242%" y2="89.03%">
      <stop stop-color="#FFEA83" offset="0%" />
      <stop stop-color="#FFDD35" offset="8.333%" />
      <stop stop-color="#FFA800" offset="100%" />
    </linearGradient>
  </defs>
  <path
    d="M255.153 37.938L134.897 252.976c-2.483 4.39-8.862 4.466-11.442.134L.875 37.958c-2.815-4.625 1.067-10.42 6.436-9.655l120.385 17.255a6.537 6.537 0 002.04-.002l118.97-17.21c5.358-.774 9.262 4.994 6.47 9.62z"
    fill="url(#icon-gradient-a)"
  />
  <path
    d="M185.432.063L96.44 14.806a3.268 3.268 0 00-2.683 3.014l-5.474 92.456a3.268 3.268 0 003.997 3.39l24.777-4.604c2.32-.43 4.413 1.507 3.936 3.845l-7.354 36.047c-.495 2.43 1.782 4.5 4.151 3.78l15.304-4.649c2.37-.72 4.648 1.35 4.15 3.781l-11.698 55.78c-.715 3.408 3.979 5.306 5.827 2.438l1.313-2.042 72.516-144.72c1.215-2.423-.88-5.186-3.55-4.672l-25.505 4.922c-2.387.461-4.393-1.88-3.595-4.189l16.646-48.727c.798-2.31-1.21-4.65-3.597-4.19z"
    fill="url(#icon-gradient-b)"
  />
</svg>

